<svg xmlns="http://www.w3.org/2000/svg" width="615.066" height="306.112" fill-rule="evenodd" clip-rule="evenodd" image-rendering="optimizeQuality" shape-rendering="geometricPrecision" text-rendering="geometricPrecision" viewBox="0 0 26757 13316"><defs><style>.str0,.str1{stroke:#e6e6e6}.str1{stroke-width:13.9096}.str0{stroke-width:29.003}.str2{stroke:#ccc}.str2,.str3,.str4{stroke-width:12.5285}.str3{stroke:#e6e6e6}.str4{stroke:#fff}.fil1{fill:none}.fil2{fill:#37556e}.fil3{fill:#e6e6e6}.fil0{fill:#fff}</style></defs><g id="Layer_x0020_1"><path d="M15 1779h26728v11523H15z" class="fil0 str0"/><path d="M427 3344h25902v1963H427z" class="fil1 str1"/><path d="M14 14h26728v1765H14z" class="fil2 str0"/><path d="M390 293h1903v1207H390zM16900 774h835v835h-835zM15587 774h835v835h-835zM14274 774h835v835h-835zM12961 774h835v835h-835zM11647 774h835v835h-835zM10334 774h835v835h-835zM9021 774h835v835h-835zM8289 190h1881v239H8289zM10415 190h3496v239h-3496zM14433 190h1881v239h-1881zM16587 190h1881v239h-1881zM24217 316h557v557h-557zM24997 316h557v557h-557zM25777 316h557v557h-557zM24222 1218h639v239h-639zM25021 1218h1308v239h-1308z" class="fil0"/><path d="M427 2719h25902v625H427z" class="fil2"/><path d="M11630 2174h3496v239h-3496z" class="fil3"/><path d="M25772 1993h557v557h-557z" class="fil2"/><path d="M1912 2912h1863v239H1912zM8114 2912h1863v239H8114zM14316 2912h1863v239h-1863zM20518 2912h1863v239h-1863z" class="fil0"/><path d="M427 4816h25902v491H427zM427 3835h25902v491H427zM1261 3530h3166v120H1261z" class="fil3"/><path d="M1350 4012h2988v120H1350z" class="fil0"/><path d="M7462 3530h2108v120H7462zM9814 3530h997v120h-997z" class="fil3"/><path d="M8703 4008h2108v120H8703zM7462 4008h997v120h-997z" class="fil0"/><path d="M19565 3530h997v120h-997zM20951 3530h997v120h-997zM22347 3530h997v120h-997zM19565 4021h997v120h-997zM20951 4021h997v120h-997zM22347 4021h997v120h-997z" class="fil2"/><path d="M13461 3530h3573v120h-3573z" class="fil3"/><path d="M14210 4012h2074v120h-2074z" class="fil0"/><path d="M1910 4508h1867v120H1910z" class="fil3"/><path d="M1557 4991h2574v120H1557z" class="fil0"/><path d="M7860 4508h1710v120H7860zM9814 4508h682v120h-682z" class="fil3"/><path d="M8628 4986h2471v120H8628zM7174 4986h1168v120H7174z" class="fil0"/><path d="M19565 4508h997v120h-997zM20951 4508h997v120h-997zM22347 4508h997v120h-997zM19565 4999h997v120h-997zM20951 4999h997v120h-997zM22347 4999h997v120h-997z" class="fil2"/><path d="M14581 4508h1333v120h-1333z" class="fil3"/><path d="M13797 4991h2901v120h-2901z" class="fil0"/><g id="_1021329376"><path d="M24997 1993h557v557h-557zM24217 1993h557v557h-557z" class="fil2"/></g><g id="_1021344992"><circle cx="12959" cy="9183" r="2488" class="fil1 str0"/><path d="M14662 7369c-445-418-1044-675-1703-675v2489l1703-1814z" class="fil2"/><path d="M12959 9183l1703-1814c265 249 472 552 607 890l-2310 924z" class="fil3 str2"/><path d="M12959 9183l2310-924c212 529 235 1115 67 1660l-2377-736z" class="fil0 str3"/><g><path d="M5487 6975h3496v239H5487z" class="fil2"/><path d="M6512 7584h2471v118H6512zM8441 7914h542v118h-542zM8441 8245h542v118h-542zM8346 8575h638v118h-638zM7162 8906h1821v118H7162zM8093 9237h890v118h-890zM6492 9237h1456v118H6492zM5222 8906h1821v118H5222zM6005 8575h2230v118H6005zM7040 8245h1247v118H7040zM6475 7914h1811v118H6475z" class="fil3"/><path d="M8692 10138h292v287h-292z" class="fil2"/><path d="M8692 10621h292v287h-292z" class="fil3"/><path d="M8692 11104h292v287h-292z" class="fil0 str3"/><path d="M7867 10222h638v118h-638zM6366 10222h1389v118H6366zM7519 10705h986v118h-986zM6175 10705h1256v118H6175zM8103 11188h402v118h-402zM6679 11188h1332v118H6679z" class="fil3"/></g><g><path d="M16934 7300h2471v169h-2471z" class="fil2"/><path d="M19761 7110h1746.73v83.2H19761zM19761 7343h383.32v83.2H19761zM19761 7577h383.32v83.2H19761zM20253 7577h881.418v83.2H20253zM20254 7343h1280.11v83.2H20254zM16934 8499h2232v169h-2232zM19761 8776h1746.73v83.2H19761zM19761 8542h383.32v83.2H19761zM19761 8308h383.32v83.2H19761zM20253 8308h881.418v83.2H20253zM20254 8542h1280.11v83.2H20254z" class="fil3"/><path d="M16934 9697h2471v169h-2471z" class="fil0 str3"/><g><path d="M19761 9507h1567.12v83.2H19761zM19761 9740h383.32v83.2H19761zM19761 9974h383.32v83.2H19761zM20253 9974h1145.85v83.2H20253zM20254 9740h524.915v83.2H20254z" class="fil3"/></g><path d="M16934 10896h2471v169h-2471z" class="fil3 str4"/><g><path d="M19761 11173h1567.12v83.2H19761zM19761 10939h383.32v83.2H19761zM19761 10705h383.32v83.2H19761zM20253 10705h1145.85v83.2H20253zM20254 10939h524.915v83.2H20254z" class="fil3"/></g></g></g><g id="_1021373472"><path d="M1208 1993h557v557h-557zM427 1993h557v557H427z" class="fil2"/></g></g></svg>