<svg xmlns="http://www.w3.org/2000/svg" width="615.089" height="306.119" fill-rule="evenodd" clip-rule="evenodd" image-rendering="optimizeQuality" shape-rendering="geometricPrecision" text-rendering="geometricPrecision" viewBox="0 0 62353 31032"><defs><style>.str0,.str1{stroke:#e6e6e6}.str1{stroke-width:32.4138}.str0{stroke-width:67.5861}.fil1{fill:none}.fil2{fill:#37556e}.fil3{fill:#e6e6e6}.fil0{fill:#fff}</style></defs><g id="Layer_x0020_1"><path d="M36 4147h62284v26851H36z" class="fil0 str0"/><path d="M996 7794h60359v4574H996z" class="fil1 str1"/><path d="M34 34h62283v4113H34z" class="fil2 str0"/><path d="M910 684h4434v2813H910V684zm38473 1121h1946v1946h-1946V1805zm-3060 0h1946v1946h-1946V1805zm-3060 0h1946v1946h-1946V1805zm-3059 0h1946v1946h-1946V1805zm-3062 0h1946v1946h-1946V1805zm-3060 0h1946v1946h-1946V1805zm-3059 0h1945v1946h-1945V1805zM19317 444h4383v557h-4383V444zm4954 0h8147v557h-8147V444zm9363 0h4383v557h-4383V444zm5019 0h4384v557h-4384V444zm17780 294h1298v1297h-1298V738zm1818 0h1298v1297h-1298V738zm1817 0h1298v1297h-1298V738zm-3623 2101h1489v557h-1489v-557zm1862 0h3048v557h-3048v-557z" class="fil0"/><path d="M996 6337h60359v1457H996z" class="fil2"/><path d="M27102 5067h8147v557h-8147z" class="fil3"/><path d="M60057 4645h1298v1298h-1298z" class="fil2"/><path d="M4457 6787h4341v557H4457v-557zm14452 0h4341v557h-4341v-557zm14452 0h4342v557h-4342v-557zm14453 0h4341v557h-4341v-557z" class="fil0"/><path d="M996 11224h60359v1144H996v-1144zm0-2286h60359v1144H996V8938zm1944-711h7377v280H2940v-280z" class="fil3"/><path d="M3147 9350h6963v280H3147z" class="fil0"/><path d="M17390 8227h4912v280h-4912v-280zm5480 0h2324v280h-2324v-280z" class="fil3"/><path d="M20282 9341h4912v279h-4912v-279zm-2892 0h2323v279h-2323v-279z" class="fil0"/><path d="M45593 8227h2323v280h-2323v-280zm3230 0h2323v280h-2323v-280zm3253 0h2323v280h-2323v-280zm-6483 1144h2323v280h-2323v-280zm3230 0h2323v280h-2323v-280zm3253 0h2323v280h-2323v-280z" class="fil2"/><path d="M31369 8227h8326v280h-8326z" class="fil3"/><path d="M33114 9350h4833v280h-4833z" class="fil0"/><path d="M4452 10506h4351v280H4452z" class="fil3"/><path d="M3629 11632h5999v279H3629z" class="fil0"/><path d="M18317 10506h3985v280h-3985v-280zm4553 0h1590v280h-1590v-280z" class="fil3"/><path d="M20107 11620h5758v279h-5758v-279zm-3388 0h2721v279h-2721v-279z" class="fil0"/><path d="M45593 10506h2323v280h-2323v-280zm3230 0h2323v280h-2323v-280zm3253 0h2323v280h-2323v-280zm-6483 1144h2323v280h-2323v-280zm3230 0h2323v280h-2323v-280zm3253 0h2323v280h-2323v-280z" class="fil2"/><path d="M33979 10506h3106v280h-3106z" class="fil3"/><path d="M32152 11632h6760v279h-6760z" class="fil0"/><path d="M58251 4645h1298v1298h-1298V4645zm-1818 0h1298v1298h-1298V4645zM996 4645h1298v1298H996zM2816 4645h1298v1298H2816z" class="fil2"/></g><g id="Layer_x0020_1_0"><g id="_799460016"><path d="M16802 15772h28466v9867H16802z" class="fil0 str0"/><circle cx="45268" cy="15772" r="589" class="fil2 str0"/><path d="M17914 20006h26174v4575H17914z" class="fil1 str1"/><path d="M17914 18550h26174v1456H17914zM42790 16858h1298v1298h-1298z" class="fil2"/><path d="M19734 20440h3200v279h-3200zM17914 21150h26174v1145H17914zM17914 23436h26174v1145H17914z" class="fil3"/><path d="M19734 21563h6963v280h-6963z" class="fil0"/><path d="M19734 22719h4351v279h-4351z" class="fil3"/><path d="M19734 23844h5998v280h-5998z" class="fil0"/><path d="M33476 20440h2324v279h-2324v-279zm3230 0h2323v279h-2323v-279zm3253 0h2323v279h-2323v-279zm-6483 1144h2324v280h-2324v-280zm3230 0h2323v280h-2323v-280zm3253 0h2323v280h-2323v-280zM33476 22719h2324v279h-2324v-279zm3230 0h2323v279h-2323v-279zm3253 0h2323v279h-2323v-279zm-6483 1144h2324v280h-2324v-280zm3230 0h2323v280h-2323v-280zm3253 0h2323v280h-2323v-280zM40984 16858h1298v1298h-1298v-1298zm-1817 0h1298v1298h-1298v-1298zM17914 16858h1298v1298h-1298zM19734 16858h1298v1298h-1298zM22655 17198h8147v557h-8147zM31804 17198h5211v557h-5211z" class="fil2"/></g></g></svg>