<svg xmlns="http://www.w3.org/2000/svg" width="24" height="24" fill-rule="evenodd" clip-rule="evenodd" image-rendering="optimizeQuality" shape-rendering="geometricPrecision" text-rendering="geometricPrecision" viewBox="0 0 25000 25000"><defs><style>.fil0{fill:#fff}</style></defs><g id="Layer_x0020_1"><g id="_1107877136"><path d="M12500 25000c6906 0 12500-5594 12500-12500S19406 0 12500 0 0 5594 0 12500s5594 12500 12500 12500zm0-23067c5835 0 10531 4731 10531 10567 0 5835-4696 10531-10531 10531-5836 0-10566-4696-10566-10531 0-5836 4730-10567 10566-10567z" class="fil0"/><path d="M4763 7552h15474l-7737 6815-7737-6815zm15767 1067v8829H4470V8618l7774 6847 256 226 256-226 7774-6846z" class="fil0"/></g></g></svg>