<svg xmlns="http://www.w3.org/2000/svg" xmlns:xlink="http://www.w3.org/1999/xlink" width="60.124" height="85.96" fill-rule="evenodd" clip-rule="evenodd" image-rendering="optimizeQuality" shape-rendering="geometricPrecision" text-rendering="geometricPrecision" version="1.1" viewBox="0 0 1995 2852" xml:space="preserve"><defs><style type="text/css">.fil0{fill:#f5f5f5}</style></defs><g id="Layer_x0020_1"><metadata id="CorelCorpID_0Corel-Layer"/><g id="_1187974000"><path d="M410 0l279 0c31,15 60,35 85,61l718 717c41,42 41,109 0,150l-216 216 -145 134c-42,39 -108,39 -151,0l-289 -268c-79,-73 -201,-73 -281,0l-289 268c-33,31 -81,38 -121,20l0 -913 324 -324c26,-26 55,-46 86,-61z" class="fil0"/><path d="M0 2435l0 -1037c64,14 134,-2 186,-50l289 -268c43,-39 109,-39 151,0l289 268c80,73 202,73 281,0l289 -268c43,-39 109,-40 152,0l176 167c143,136 280,193 85,388l-1124 1124c-123,124 -326,124 -450,0l-324 -324z" class="fil0"/></g></g></svg>