<svg xmlns="http://www.w3.org/2000/svg" xmlns:xlink="http://www.w3.org/1999/xlink" width="63.405" height="89.029" fill-rule="evenodd" clip-rule="evenodd" image-rendering="optimizeQuality" shape-rendering="geometricPrecision" text-rendering="geometricPrecision" version="1.1" viewBox="0 0 2711 3806" xml:space="preserve"><defs><style type="text/css">.fil0{fill:#f5f5f5}</style></defs><g id="Layer_x0020_1"><metadata id="CorelCorpID_0Corel-Layer"/><path d="M511 0l1475 0c341,160 656,489 656,982l-685 0c-17,-208 -178,-412 -384,-427l0 722c524,54 1138,255 1138,961 0,616 -617,1066 -1138,1093l0 475 -658 0 0 -482c-261,-38 -673,-226 -915,-600l0 -604 499 0c44,200 101,443 416,533l0 -788c-305,-44 -706,-152 -915,-458l0 -985c129,-203 328,-339 511,-422zm408 562l0 599c-464,-8 -473,-516 0,-599zm662 1416c574,14 638,587 -1,679l1 -679z" class="fil0"/></g></svg>