<svg xmlns="http://www.w3.org/2000/svg" width="16.148" height="16.154" fill-rule="evenodd" clip-rule="evenodd" image-rendering="optimizeQuality" shape-rendering="geometricPrecision" text-rendering="geometricPrecision" viewBox="0 0 256 256"><defs><style>.fil0{fill:#fff;fill-rule:nonzero}</style></defs><path id="Layer_x0020_1" d="M174 57L85 80l6 20 17-4-75 80c-7-14-11-29-12-45 0-27 9-55 29-76 21-22 47-33 75-34 56-1 103 41 108 97 3 30-7 62-28 83-20 22-47 33-74 34-22 0-44-6-63-19l-15 16c24 17 51 25 79 24 32-1 65-15 89-40 24-26 36-59 35-92C252 11 113-43 35 40 11 66-1 99 0 132c1 27 10 54 29 77l1 1L174 57z" class="fil0"/></svg>