<svg xmlns="http://www.w3.org/2000/svg" xmlns:xlink="http://www.w3.org/1999/xlink" width="65.033" height="80.403" fill-rule="evenodd" clip-rule="evenodd" image-rendering="optimizeQuality" shape-rendering="geometricPrecision" text-rendering="geometricPrecision" version="1.1" viewBox="0 0 3215 3975" xml:space="preserve"><defs><style type="text/css">.fil0{fill:#f5f5f5}</style></defs><g id="Layer_x0020_1"><metadata id="CorelCorpID_0Corel-Layer"/><path d="M925 0l1815 0c55,27 109,56 162,88 97,57 189,123 275,196l38 32 -20 45 -274 598 -41 90 -67 -72c-124,-135 -276,-243 -446,-318 -163,-71 -344,-111 -535,-111 -272,0 -526,82 -737,221 -190,126 -346,299 -451,503l1869 0 105 0 -46 95 -218 444 -18 37 -41 0 -1798 0c-1,10 -1,22 -1,36 0,47 2,92 7,135 2,27 6,54 10,80l1904 0 104 0 -44 94 -212 445 -18 38 -41 0 -1451 0c112,152 256,280 422,373 193,109 417,171 655,171 210,0 408,-48 584,-133l0 0c183,-90 343,-219 468,-378l117 41 0 833 0 35 -30 20c-166,108 -349,194 -544,252 -189,55 -389,85 -595,85 -411,0 -794,-118 -1118,-323 -297,-189 -544,-450 -714,-760l0 -2016c107,-193 243,-367 402,-517 155,-145 331,-266 523,-359z" class="fil0"/></g></svg>