<svg xmlns="http://www.w3.org/2000/svg" xmlns:xlink="http://www.w3.org/1999/xlink" width="63.405" height="89.32" fill-rule="evenodd" clip-rule="evenodd" image-rendering="optimizeQuality" shape-rendering="geometricPrecision" text-rendering="geometricPrecision" version="1.1" viewBox="0 0 2440 3437" xml:space="preserve"><defs><style type="text/css">.fil0{fill:#f5f5f5}</style></defs><g id="Layer_x0020_1"><metadata id="CorelCorpID_0Corel-Layer"/><path d="M358 0l11 0 362 0 1 0 0 92 240 1 0 -93 9 0 363 0 2 0 0 93c365,68 647,111 825,380 83,126 105,326 55,494 -55,186 -131,230 -232,324l-26 29c76,54 170,78 250,147 246,211 271,571 155,869 -209,541 -780,457 -1028,500l-1 301 0 293 -2 0 0 7 -366 -1 -1 -604 -243 -2 0 596 0 0 0 4 -363 0 0 -1 -5 1 -5 -592 -359 -15 0 -400c74,-26 81,-94 80,-274l0 -1431c1,-152 -14,-209 -80,-229l0 -341c0,-19 4,-37 10,-54l347 -16 1 -78zm374 1223c326,17 785,74 806,-359 18,-385 -463,-376 -802,-359l-4 718zm0 1171c440,23 943,43 982,-391 42,-457 -591,-398 -979,-390l-3 781z" class="fil0"/></g></svg>