<?xml version="1.0" encoding="UTF-8"?>
<!DOCTYPE svg PUBLIC "-//W3C//DTD SVG 1.1//EN" "http://www.w3.org/Graphics/SVG/1.1/DTD/svg11.dtd">
<!-- Creator: CorelDRAW X7 -->
<svg xmlns="http://www.w3.org/2000/svg" xml:space="preserve" width="75px" height="75px" version="1.1" style="shape-rendering:geometricPrecision; text-rendering:geometricPrecision; image-rendering:optimizeQuality; fill-rule:evenodd; clip-rule:evenodd"
viewBox="0 0 19163 19163"
 xmlns:xlink="http://www.w3.org/1999/xlink">
 <defs>
  <style type="text/css">
   <![CDATA[
    .fil1 {fill:#37556E;fill-rule:nonzero}
    .fil0 {fill:#37556E;fill-opacity:0.000000}
	.fil0:hover {fill:#D7DBE2;fill-opacity:1.000000}
   ]]>
  </style>
 </defs>
 <g id="Layer_x0020_1">
  <path class="fil0" d="M9581 1326c4559,0 8255,3696 8255,8255 0,4559 -3696,8255 -8255,8255 -4559,0 -8255,-3696 -8255,-8255 0,-4559 3696,-8255 8255,-8255z"/>
  <path class="fil1" d="M9620 0c2616,0 5002,1077 6772,2770 1693,1771 2771,4156 2771,6850 0,2616 -1078,5002 -2771,6772 -1770,1693 -4156,2771 -6772,2771 -2694,0 -5079,-1078 -6850,-2771 -1693,-1770 -2770,-4156 -2770,-6772 0,-2694 1077,-5079 2770,-6850 1771,-1693 4156,-2770 6850,-2770zm-1232 17547l0 -9c402,62 813,94 1232,94 440,0 871,-36 1292,-105 1712,-256 3204,-1088 4403,-2212 510,-539 958,-1161 1320,-1840 635,-1153 997,-2478 997,-3889 0,-2185 -867,-4165 -2274,-5615l-43 -46 -102 -100c-1365,-1338 -3205,-2189 -5242,-2278l-112 -4 -46 -2 -193 -2c-197,0 -393,8 -586,22l-79 6 -100 9 -91 9 -110 12c-1788,216 -3394,1023 -4620,2221l-109 107c-1462,1462 -2386,3463 -2386,5695 0,2155 924,4232 2386,5695 1154,1154 2770,2001 4463,2232z"/>
  <polygon class="fil1" points="12949,12097 9581,7884 6214,12097 5510,11535 9229,6882 9581,6442 9933,6882 13652,11535 "/>
 </g>
</svg>
