<?xml version="1.0" encoding="UTF-8"?>
<!DOCTYPE svg PUBLIC "-//W3C//DTD SVG 1.1//EN" "http://www.w3.org/Graphics/SVG/1.1/DTD/svg11.dtd">
<!-- Creator: CorelDRAW X7 -->
<svg xmlns="http://www.w3.org/2000/svg" xml:space="preserve" width="0.249165in" height="0.249165in" version="1.1" style="shape-rendering:geometricPrecision; text-rendering:geometricPrecision; image-rendering:optimizeQuality; fill-rule:evenodd; clip-rule:evenodd"
viewBox="0 0 63 63"
 xmlns:xlink="http://www.w3.org/1999/xlink">
 <defs>
  <style type="text/css">
   <![CDATA[
    .fil0 {fill:#37556E;fill-rule:nonzero}
   ]]>
  </style>
 </defs>
 <g id="Layer_x0020_1">
  <metadata id="CorelCorpID_0Corel-Layer"/>
  <path class="fil0" d="M31 0c9,0 17,4 23,9 5,6 9,14 9,22 0,9 -4,17 -9,23 -6,5 -14,9 -23,9 -8,0 -16,-4 -22,-9 -5,-6 -9,-14 -9,-23 0,-8 4,-16 9,-22 6,-5 14,-9 22,-9zm11 39l-11 -13 -11 13 -2 -1 12 -16 1 -1 1 1 13 16 -3 1zm-15 18l0 0c2,0 3,1 4,1 2,0 3,-1 5,-1 5,-1 10,-3 14,-7 2,-2 3,-4 4,-6 2,-4 4,-8 4,-13 0,-7 -3,-13 -8,-18l0 0 0 -1c-5,-4 -11,-7 -17,-7l-1 0 0 0 -1 0c0,0 -1,0 -2,0l0 0 0 0 0 0 -1 0c-6,1 -11,4 -15,7l0 1c-5,5 -8,11 -8,18 0,7 3,14 8,19 4,4 9,7 14,7z"/>
 </g>
</svg>
