<svg xmlns="http://www.w3.org/2000/svg" xmlns:xlink="http://www.w3.org/1999/xlink" width="16.959" height="16.959" fill-rule="evenodd" clip-rule="evenodd" image-rendering="optimizeQuality" shape-rendering="geometricPrecision" text-rendering="geometricPrecision" version="1.1" viewBox="0 0 1506 1506" xml:space="preserve"><defs><style type="text/css">.fillBlue,.fillTrans{fill-rule:nonzero}.fillTrans{fill:none}.fillBlue{fill:#0096dc}</style></defs><g id="icon"><path id="bg" d="M1225 281c-121,-121 -288,-196 -472,-196 -184,0 -351,75 -472,196 -121,121 -196,288 -196,472 0,184 75,351 196,472l0 0c121,121 288,196 472,196 184,0 351,-75 472,-196 121,-121 196,-288 196,-472 0,-184 -75,-351 -196,-472l0 0z" class="fillTrans"/><path id="outter" d="M753 0c208,0 396,84 532,221l0 0c136,136 221,324 221,532 0,208 -85,396 -221,532l0 0c-136,136 -324,221 -532,221 -208,0 -396,-85 -532,-221l0 0c-137,-136 -221,-324 -221,-532 0,-208 84,-396 221,-532 136,-137 324,-221 532,-221zm472 281c-121,-121 -288,-196 -472,-196 -184,0 -351,75 -472,196 -121,121 -196,288 -196,472 0,184 75,351 196,472l0 0c121,121 288,196 472,196 184,0 351,-75 472,-196 121,-121 196,-288 196,-472 0,-184 -75,-351 -196,-472l0 0z" class="fillBlue"/><polygon id="inner" points="796 328 796 710 1177 710 1177 795 796 795 796 1177 710 1177 710 795 328 795 328 710 710 710 710 328" class="fillBlue"/></g></svg>