<svg xmlns="http://www.w3.org/2000/svg" xmlns:xlink="http://www.w3.org/1999/xlink" width="10.394" height="10.521" fill-rule="evenodd" clip-rule="evenodd" image-rendering="optimizeQuality" shape-rendering="geometricPrecision" text-rendering="geometricPrecision" version="1.1" viewBox="0 0 70 71" xml:space="preserve"><defs><style type="text/css">.fil0{fill:#fff}</style></defs><g id="Layer_x0020_1"><metadata id="CorelCorpID_0Corel-Layer"/><path id="wIcon_clip.svg" d="M2 31l29 -29c1,-1 2,-2 4,-2 1,0 3,1 4,2l29 29c3,2 3,6 0,9l-15 15 -16 -33 -2 -4 -2 4 -16 33 -15 -15c-3,-3 -3,-7 0,-9zm33 40c1,0 3,-1 4,-2l8 -8 -12 -24 -12 24 8 8c1,1 2,2 4,2z" class="fil0"/></g></svg>